<svg width="113" height="40" viewBox="0 0 113 40" fill="none" xmlns="http://www.w3.org/2000/svg">
<path d="M25.6587 40V9.56772H31.8591V13.2853H32.1396C32.4151 12.6897 32.8137 12.0845 33.3354 11.4697C33.8668 10.8453 34.5558 10.3266 35.4022 9.91354C36.2584 9.49087 37.3213 9.27954 38.5909 9.27954C40.2444 9.27954 41.7699 9.70221 43.1674 10.5476C44.565 11.3833 45.682 12.6465 46.5186 14.3372C47.3552 16.0182 47.7734 18.1268 47.7734 20.6628C47.7734 23.1316 47.365 25.2161 46.5481 26.9164C45.7411 28.6071 44.6388 29.8895 43.2412 30.7637C41.8535 31.6282 40.2985 32.0605 38.5762 32.0605C37.3558 32.0605 36.3175 31.8636 35.4612 31.4697C34.6148 31.0759 33.921 30.5812 33.3796 29.9856C32.8383 29.3804 32.425 28.7704 32.1396 28.1556H31.9476V40H25.6587ZM31.8148 20.634C31.8148 21.95 32.0018 23.098 32.3758 24.0778C32.7498 25.0576 33.2911 25.8213 33.9997 26.3689C34.7083 26.9068 35.5695 27.1758 36.5832 27.1758C37.6067 27.1758 38.4728 26.902 39.1814 26.3545C39.8901 25.7973 40.4265 25.0288 40.7906 24.049C41.1646 23.0596 41.3516 21.9212 41.3516 20.634C41.3516 19.3564 41.1695 18.2325 40.8054 17.2622C40.4412 16.292 39.9048 15.5331 39.1962 14.9856C38.4876 14.438 37.6166 14.1643 36.5832 14.1643C35.5596 14.1643 34.6935 14.4284 33.9849 14.9568C33.2861 15.4851 32.7498 16.2344 32.3758 17.2046C32.0018 18.1748 31.8148 19.318 31.8148 20.634Z" fill="black"/>
<path fill-rule="evenodd" clip-rule="evenodd" d="M64.0274 14.1787V9.56772H59.7609V4.26513H53.4719V9.56772H50.3717V14.1787H53.4719V25.7061C53.4621 27.1566 53.7721 28.3573 54.402 29.3084C55.0318 30.2594 55.9127 30.9606 57.0445 31.4121C58.1862 31.8636 59.5148 32.0605 61.0305 32.0029C61.8474 31.9741 62.5412 31.8924 63.1121 31.7579C63.6829 31.633 64.1258 31.5226 64.4407 31.4265L63.4516 26.8588C63.2941 26.8876 63.0678 26.9308 62.7725 26.9885C62.4773 27.0365 62.182 27.0605 61.8867 27.0605C61.4635 27.0605 61.0895 26.9981 60.7648 26.8732C60.4498 26.7483 60.2038 26.5322 60.0266 26.2248C59.8495 25.9078 59.7609 25.4659 59.7609 24.8991V14.1787H64.0274Z" fill="black"/>
<path fill-rule="evenodd" clip-rule="evenodd" d="M86.157 3.80403C86.157 5.90494 84.412 7.60807 82.2596 7.60807C80.1071 7.60807 78.3622 5.90494 78.3622 3.80403C78.3622 1.70312 80.1071 0 82.2596 0C84.412 0 86.157 1.70312 86.157 3.80403Z" fill="#FF6645"/>
<path d="M79.4509 31.7003V9.56772H85.7399V31.7003H79.4509Z" fill="black"/>
<path d="M68.124 31.7003V9.56772H74.4131V31.7003H68.124Z" fill="black"/>
<path fill-rule="evenodd" clip-rule="evenodd" d="M75.1143 3.80403C75.1143 5.90494 73.3694 7.60807 71.217 7.60807C69.0645 7.60807 67.3195 5.90494 67.3195 3.80403C67.3195 1.70312 69.0645 0 71.217 0C73.3694 0 75.1143 1.70312 75.1143 3.80403Z" fill="#FF6645"/>
<path d="M99.6669 16.9452V31.7003H96.5224V16.9452H99.6669Z" fill="#FF6645"/>
<path d="M107.309 31.9164C106.162 31.9164 105.17 31.6787 104.334 31.2032C103.502 30.7229 102.86 30.0552 102.407 29.2003C101.955 28.3405 101.728 27.3439 101.728 26.2104C101.728 25.0672 101.955 24.0682 102.407 23.2133C102.86 22.3535 103.502 21.6859 104.334 21.2104C105.17 20.7301 106.162 20.4899 107.309 20.4899C108.455 20.4899 109.444 20.7301 110.276 21.2104C111.112 21.6859 111.757 22.3535 112.21 23.2133C112.663 24.0682 112.889 25.0672 112.889 26.2104C112.889 27.3439 112.663 28.3405 112.21 29.2003C111.757 30.0552 111.112 30.7229 110.276 31.2032C109.444 31.6787 108.455 31.9164 107.309 31.9164ZM107.323 29.5389C107.845 29.5389 108.28 29.3948 108.63 29.1066C108.979 28.8136 109.242 28.415 109.42 27.9107C109.602 27.4063 109.693 26.8324 109.693 26.1888C109.693 25.5451 109.602 24.9712 109.42 24.4669C109.242 23.9625 108.979 23.5639 108.63 23.2709C108.28 22.9779 107.845 22.8314 107.323 22.8314C106.797 22.8314 106.354 22.9779 105.995 23.2709C105.64 23.5639 105.372 23.9625 105.19 24.4669C105.013 24.9712 104.924 25.5451 104.924 26.1888C104.924 26.8324 105.013 27.4063 105.19 27.9107C105.372 28.415 105.64 28.8136 105.995 29.1066C106.354 29.3948 106.797 29.5389 107.323 29.5389Z" fill="#FF6645"/>
<path fill-rule="evenodd" clip-rule="evenodd" d="M94.6014 22.9395V20.634H92.3427V19.8919C92.3427 19.5173 92.4337 19.2267 92.6158 19.0202C92.7979 18.8088 93.1202 18.7032 93.5827 18.7032C93.7697 18.7032 93.9518 18.72 94.129 18.7536C94.3111 18.7872 94.4636 18.8232 94.5866 18.8617L95.1476 16.5562C94.9508 16.4986 94.6506 16.4337 94.2471 16.3617C93.8485 16.2896 93.4081 16.2536 92.9258 16.2536C92.2123 16.2536 91.575 16.3857 91.014 16.6499C90.453 16.914 90.0101 17.3103 89.6853 17.8386C89.3655 18.367 89.2056 19.0322 89.2056 19.8343V20.634H87.6038V22.9395H89.2056V31.7003H92.3427V22.9395H94.6014Z" fill="#FF6645"/>
<path fill-rule="evenodd" clip-rule="evenodd" d="M5.21129 29.9856C6.88442 30.9366 8.86756 31.4121 11.1607 31.4121L11.1903 26.6571C10.1372 26.6571 9.2514 26.3689 8.53294 25.7925C7.82432 25.2065 7.28793 24.4092 6.92378 23.4006C6.56948 22.3919 6.39232 21.244 6.39232 19.9568C6.39232 18.6695 6.56948 17.5216 6.92378 16.513C7.28793 15.5043 7.82432 14.707 8.53294 14.121C9.2514 13.5351 10.1372 13.2421 11.1903 13.2421C11.3282 13.2421 11.4631 13.2472 11.595 13.2574C11.7777 10.8644 11.9129 8.55908 11.1607 8.55908C8.86756 8.55908 6.88442 9.03938 5.21129 10C3.54801 10.951 2.26364 12.2863 1.35818 14.0058C0.452728 15.7157 0 17.7137 0 20C0 22.267 0.452728 24.2603 1.35818 25.9798C2.26364 27.6897 3.54801 29.025 5.21129 29.9856Z" fill="black"/>
<path d="M22.3215 20C22.3215 17.7137 21.8687 15.7157 20.9633 14.0058C20.3694 12.8779 19.6104 11.9154 18.6862 11.1182L19.7496 10.0509L13.4241 9.50025L13.1786 13.6992L13.0208 16.3977L14.5085 15.0909L14.6128 14.9993C14.925 15.4357 15.1817 15.9403 15.3829 16.513C15.7471 17.5216 15.9291 18.6695 15.9291 19.9568C15.9291 21.244 15.7471 22.3919 15.3829 23.4006C15.0286 24.4092 14.5021 25.2065 13.8033 25.7925C13.1045 26.3689 12.2335 26.6571 11.1903 26.6571L11.1607 31.4121C13.4539 31.4121 15.4321 30.9366 17.0954 29.9856C18.7685 29.025 20.0578 27.6897 20.9633 25.9798C21.8687 24.2603 22.3215 22.267 22.3215 20Z" fill="#FF6645"/>
</svg>
